HIERARCHY
ROOT Hips
{
	OFFSET 0.000000 0.000000 0.000000
	CHANNELS 6 Xposition Yposition Zposition Zrotation Yrotation Xrotation 
	JOINT LeftUpLeg_virtual
	{
		OFFSET 0.000000 0.000000 0.000000
		CHANNELS 3 Zrotation Yrotation Xrotation
		JOINT LeftUpLeg
		{
			OFFSET 10.205400 -3.823500 0.155100
			CHANNELS 3 Zrotation Yrotation Xrotation
			JOINT LeftLeg
			{
				OFFSET 0.708757 -12.982077 0.567790
				CHANNELS 3 Zrotation Yrotation Xrotation
				JOINT LeftFoot
				{
					OFFSET -0.708756 -10.717838 -2.184338
					CHANNELS 3 Zrotation Yrotation Xrotation
					JOINT LeftToeBase
					{
						OFFSET 0.108149 -7.191104 7.560241
						CHANNELS 3 Zrotation Yrotation Xrotation
						End Site
						{
							OFFSET 0.000000 0.000000 0.000000
						}
					}
				}
			}
		}
	}
	JOINT RightUpLeg_virtual
	{
		OFFSET 0.000000 0.000000 0.000000
		CHANNELS 3 Zrotation Yrotation Xrotation
		JOINT RightUpLeg
		{
			OFFSET -10.205400 -3.823500 0.005500
			CHANNELS 3 Zrotation Yrotation Xrotation
			JOINT RightLeg
			{
				OFFSET -0.708756 -12.982134 0.610632
				CHANNELS 3 Zrotation Yrotation Xrotation
				JOINT RightFoot
				{
					OFFSET 0.708754 -10.717769 -1.945823
					CHANNELS 3 Zrotation Yrotation Xrotation
					JOINT RightToeBase
					{
						OFFSET -0.108140 -7.191069 7.372968
						CHANNELS 3 Zrotation Yrotation Xrotation
						End Site
						{
							OFFSET 0.000000 0.000000 0.000000
						}
					}
				}
			}
		}
	}
	JOINT Spine_virtual
	{
		OFFSET 0.000000 0.000000 0.000000
		CHANNELS 3 Zrotation Yrotation Xrotation
		JOINT Spine
		{
			OFFSET 0.000000 6.876099 0.125700
			CHANNELS 3 Zrotation Yrotation Xrotation
			JOINT Spine1
			{
				OFFSET 0.000000 8.022060 0.146608
				CHANNELS 3 Zrotation Yrotation Xrotation
				JOINT Spine2
				{
					OFFSET 0.000000 9.168068 0.167552
					CHANNELS 3 Zrotation Yrotation Xrotation
					JOINT Neck_virtual
					{
						OFFSET 0.000000 0.000000 0.000000
						CHANNELS 3 Zrotation Yrotation Xrotation
						JOINT Neck
						{
							OFFSET 0.000000 10.314075 0.188496
							CHANNELS 3 Zrotation Yrotation Xrotation
							JOINT Head
							{
								OFFSET 0.000000 7.643700 -2.377400
								CHANNELS 3 Zrotation Yrotation Xrotation
								End Site
								{
									OFFSET 0.000000 0.000000 0.000000
								}
							}
						}
					}
					JOINT LeftShoulder_virtual
					{
						OFFSET 0.000000 0.000000 0.000000
						CHANNELS 3 Zrotation Yrotation Xrotation
						JOINT LeftShoulder
						{
							OFFSET 4.392200 8.824978 0.174984
							CHANNELS 3 Zrotation Yrotation Xrotation
							JOINT LeftArm
							{
								OFFSET 8.771219 -2.981674 -0.026999
								CHANNELS 3 Zrotation Yrotation Xrotation
								JOINT LeftForeArm
								{
									OFFSET 8.512804 0.000000 -0.000000
									CHANNELS 3 Zrotation Yrotation Xrotation
									JOINT LeftHand
									{
										OFFSET 18.484802 0.000000 -0.000000
										CHANNELS 3 Zrotation Yrotation Xrotation
										End Site
										{
											OFFSET 0.000000 0.000000 0.000000
										}
									}
								}
							}
						}
					}
					JOINT RightShoulder_virtual
					{
						OFFSET 0.000000 0.000000 0.000000
						CHANNELS 3 Zrotation Yrotation Xrotation
						JOINT RightShoulder
						{
							OFFSET -4.392200 8.824993 0.141379
							CHANNELS 3 Zrotation Yrotation Xrotation
							JOINT RightArm
							{
								OFFSET -8.771282 -2.981682 -0.094208
								CHANNELS 3 Zrotation Yrotation Xrotation
								JOINT RightForeArm
								{
									OFFSET -8.494598 0.000000 0.000000
									CHANNELS 3 Zrotation Yrotation Xrotation
									JOINT RightHand
									{
										OFFSET -18.483803 0.000000 0.000001
										CHANNELS 3 Zrotation Yrotation Xrotation
										End Site
										{
											OFFSET 0.000000 0.000000 0.000000
										}
									}
								}
							}
						}
					}
				}
			}
		}
	}
}
MOTION
Frames: 14
Frame Time: 0.033333
2.055017 34.592136 -27.883305 179.768393 2.821525 179.703124 0.430690 -3.234051 9.143487 -8.565783 -3.333582 -28.642808 10.048428 6.011556 14.195395 -0.450085 3.579786 10.668709 0.000000 0.000000 0.000000 6.187488 -2.337851 7.764552 -0.988939 8.733232 -29.336100 -4.490621 2.556704 21.734376 11.141044 3.995310 6.526229 0.000000 0.000000 0.000000 2.753734 0.416089 -2.835887 -1.512951 -3.643682 -10.923074 -1.568684 -1.708955 11.136851 -0.006611 0.040182 -0.038001 -1.962719 0.483459 12.701931 -1.963946 -0.456200 19.112041 0.000000 0.000000 0.000000 -0.239528 1.152623 9.839415 -16.687265 -12.332838 3.061937 -43.815387 18.306712 23.094854 -1.170113 -36.498776 2.584002 0.000000 0.000000 0.000000 -4.331146 2.235958 9.247878 25.473218 7.563535 7.106647 47.622357 -16.423866 12.184468 -6.983312 31.598279 -4.186939 0.000000 0.000000 0.000000 
2.034425 34.572189 -27.964970 179.608034 2.845752 179.585331 0.311795 -3.361699 9.058404 -8.477008 -3.232785 -28.356521 10.302538 6.136800 14.190235 -0.204659 3.785091 11.064732 0.000000 0.000000 0.000000 6.413211 -2.262819 7.560888 -0.835768 9.081096 -29.387548 -4.269675 2.620964 21.553825 11.596207 4.359817 6.236663 0.000000 0.000000 0.000000 2.680877 0.282417 -3.000801 -1.568000 -3.721867 -11.013923 -1.652020 -1.607232 11.180252 0.115170 -0.025937 -0.123500 -2.047993 0.366110 12.818568 -1.934548 -0.431592 19.271051 0.000000 0.000000 0.000000 -0.222886 1.317558 9.813248 -16.780513 -12.270722 3.058605 -44.003470 18.375973 22.942793 -1.231796 -36.455984 2.640772 0.000000 0.000000 0.000000 -4.438264 2.286450 9.292589 25.396629 7.654593 7.114632 47.536047 -16.384210 12.344972 -6.982118 31.571849 -4.198081 0.000000 0.000000 0.000000 
2.003331 34.552399 -28.076038 179.483766 2.672844 179.592393 0.259944 -3.384877 8.853317 -8.573380 -3.383239 -28.067484 10.258030 6.359590 14.550067 -0.261444 3.718495 10.615979 0.000000 0.000000 0.000000 6.506187 -2.169680 7.547125 -0.805118 9.698717 -29.197256 -3.751160 4.222483 21.250803 12.555471 5.089965 5.371111 0.000000 0.000000 0.000000 2.513255 0.370512 -3.287312 -1.569193 -3.576802 -11.192180 -1.596935 -1.724524 11.177063 -0.002424 0.025617 -0.083248 -1.962036 0.399205 12.800004 -1.921710 -0.477019 19.360620 0.000000 0.000000 0.000000 -0.206752 1.197319 9.788589 -16.893530 -12.203629 3.047866 -44.433690 18.434269 22.542734 -1.192726 -36.399116 2.579868 0.000000 0.000000 0.000000 -4.334914 2.314844 9.206059 25.387152 7.473421 7.174711 47.456824 -16.482380 12.604188 -6.985885 31.582815 -4.127159 0.000000 0.000000 0.000000 
1.975849 34.535889 -28.194668 179.532834 2.530837 179.606668 0.302655 -3.355056 8.976434 -8.605604 -3.505636 -28.207197 10.251270 6.517524 15.034884 -0.320827 3.670538 10.096356 0.000000 0.000000 0.000000 6.413026 -2.159160 7.525015 -0.726888 9.648134 -28.897506 -3.752553 4.193617 21.122377 12.635896 5.031898 5.261249 0.000000 0.000000 0.000000 2.646415 0.202657 -3.567051 -1.583971 -3.470960 -11.385357 -1.659272 -1.652588 11.144840 0.057593 0.092547 -0.081005 -2.014658 0.470006 12.769577 -1.838725 -0.396643 19.342151 0.000000 0.000000 0.000000 -0.293172 1.177678 9.885796 -17.055742 -12.053949 3.088461 -45.047946 18.485709 21.970089 -1.076764 -36.260631 2.435894 0.000000 0.000000 0.000000 -4.458155 2.203055 9.307504 25.386707 7.589979 7.159598 47.305214 -16.602788 12.995786 -6.908874 31.690852 -4.048200 0.000000 0.000000 0.000000 
1.957479 34.522800 -28.305054 179.565168 2.284691 179.642800 0.337250 -3.303981 8.928457 -8.652677 -3.667774 -28.145348 10.229252 6.644307 15.307152 -0.404724 3.619215 9.763574 0.000000 0.000000 0.000000 6.319238 -2.148966 7.548521 -0.662563 9.565547 -28.593639 -3.769899 4.129190 20.938029 12.702674 4.947062 5.089331 0.000000 0.000000 0.000000 2.665512 0.294762 -3.865638 -1.580573 -3.392737 -11.604070 -1.642764 -1.664397 11.198077 0.058167 0.094544 -0.056152 -2.004651 0.401321 12.852277 -1.804977 -0.352264 19.499582 0.000000 0.000000 0.000000 -0.348447 1.145030 9.896617 -17.157271 -11.954827 2.909605 -45.577955 18.629648 21.279693 -1.142907 -36.110739 2.498900 0.000000 0.000000 0.000000 -4.442615 2.150960 9.338163 25.368070 7.598311 7.201645 47.179720 -16.573700 13.453857 -7.040409 31.639222 -4.139425 0.000000 0.000000 0.000000 
1.951807 34.518688 -28.406187 179.594223 2.018447 179.648892 0.359919 -3.272711 8.912883 -8.672149 -3.815550 -28.055682 10.205127 6.711861 15.483031 -0.506026 3.584665 9.554163 0.000000 0.000000 0.000000 6.246551 -2.139635 7.578705 -0.583109 9.476544 -28.287698 -3.793275 4.059082 20.740983 12.747731 4.831980 4.978111 0.000000 0.000000 0.000000 2.685894 0.455979 -4.006923 -1.585613 -3.393686 -11.794276 -1.633348 -1.731243 11.165767 0.044461 0.050479 -0.036745 -2.033301 0.437590 12.782703 -1.856186 -0.296477 19.506513 0.000000 0.000000 0.000000 -0.401624 1.117162 9.897385 -17.195833 -11.804877 2.911453 -45.917343 18.687433 20.865787 -1.095229 -35.974504 2.434144 0.000000 0.000000 0.000000 -4.409564 2.206503 9.408546 25.416549 7.646319 7.218679 46.981012 -16.618596 13.842163 -7.192017 31.722414 -4.175763 0.000000 0.000000 0.000000 
1.965387 34.521049 -28.491392 179.614796 1.747839 179.730158 0.364923 -3.277459 8.838835 -8.653639 -3.952853 -27.951000 10.219566 6.640487 15.609031 -0.609590 3.570442 9.373386 0.000000 0.000000 0.000000 6.208750 -2.131677 7.582848 -0.493069 9.374149 -28.089438 -3.801699 4.002741 20.600472 12.750344 4.703273 4.942076 0.000000 0.000000 0.000000 2.760661 0.498173 -4.187298 -1.663866 -3.400576 -12.038249 -1.705855 -1.768638 11.170830 0.086365 0.050186 -0.029027 -1.972697 0.318818 12.830915 -1.854509 -0.300051 19.677558 0.000000 0.000000 0.000000 -0.337008 1.085726 9.872454 -17.257743 -11.702343 2.863354 -46.071047 18.703431 20.738742 -0.988623 -35.792001 2.374704 0.000000 0.000000 0.000000 -4.335661 2.151508 9.378435 25.310485 7.773484 7.208471 46.773289 -16.654412 14.194655 -7.086553 31.824641 -4.144298 0.000000 0.000000 0.000000 
1.984902 34.524605 -28.553141 179.636543 1.537354 179.751646 0.390775 -3.279595 8.838815 -8.628768 -4.057484 -27.905090 10.251503 6.631607 15.629085 -0.741895 3.546496 9.309759 0.000000 0.000000 0.000000 6.183020 -2.153639 7.603169 -0.393164 9.246996 -27.993730 -3.787984 4.042501 20.595756 12.695446 4.568259 4.954107 0.000000 0.000000 0.000000 2.758006 0.464304 -4.247460 -1.680397 -3.387471 -12.250644 -1.604801 -1.828863 11.089806 0.035380 0.019416 -0.026450 -1.974658 0.357468 12.811208 -1.868632 -0.142075 19.827909 0.000000 0.000000 0.000000 -0.364290 1.082802 9.834649 -17.245951 -11.669865 2.842750 -45.943814 18.631282 21.023963 -0.953650 -35.645791 2.400695 0.000000 0.000000 0.000000 -4.334024 2.141447 9.370512 25.229827 7.993403 7.207535 46.631754 -16.758807 14.537890 -7.025181 31.937637 -4.096992 0.000000 0.000000 0.000000 
2.012899 34.523506 -28.603086 179.657334 1.431925 179.780660 0.443601 -3.282348 8.846979 -8.601576 -4.189137 -27.935194 10.369416 6.605536 15.746134 -0.865403 3.524928 9.168722 0.000000 0.000000 0.000000 6.180560 -2.197731 7.613382 -0.272004 9.132378 -27.989741 -3.728636 4.149982 20.692403 12.615664 4.464631 5.042618 0.000000 0.000000 0.000000 2.776367 0.444333 -4.271000 -1.685276 -3.297398 -12.434031 -1.574902 -1.823478 11.011726 0.020723 0.043439 -0.018217 -1.899771 0.280992 12.723939 -1.899699 -0.066144 19.953071 0.000000 0.000000 0.000000 -0.301595 1.048322 9.828536 -17.249745 -11.718772 2.830051 -45.593958 18.456051 21.551851 -0.961041 -35.531228 2.458796 0.000000 0.000000 0.000000 -4.212181 2.083473 9.306858 25.122969 8.227062 7.203028 46.461337 -16.984930 14.804763 -7.050849 32.004231 -4.283358 0.000000 0.000000 0.000000 
2.044026 34.520298 -28.624462 179.669233 1.532210 179.743969 0.487771 -3.254452 8.923893 -8.584060 -4.327786 -28.009962 10.598060 6.600645 15.961148 -0.969926 3.509668 9.045622 0.000000 0.000000 0.000000 6.224913 -2.212611 7.629378 -0.165344 9.078699 -28.025084 -3.647193 4.320964 20.851353 12.521651 4.402532 5.095027 0.000000 0.000000 0.000000 2.886054 0.352725 -4.254957 -1.699119 -3.177280 -12.567830 -1.599973 -1.802450 10.966885 0.028338 0.071065 -0.099750 -1.824976 0.232862 12.721644 -1.784016 0.083086 20.119685 0.000000 0.000000 0.000000 -0.330345 1.087236 9.817808 -17.274016 -11.700024 2.854058 -45.047061 18.296639 22.134189 -0.961684 -35.553129 2.486226 0.000000 0.000000 0.000000 -4.233482 2.104870 9.349196 25.037144 8.524577 7.203653 46.398445 -17.305170 14.906743 -6.953375 32.159136 -4.133181 0.000000 0.000000 0.000000 
2.070337 34.522812 -28.621365 179.644261 1.679274 179.763353 0.457664 -3.325539 8.936330 -8.569896 -4.366153 -28.079449 10.870674 6.648018 16.266703 -1.095839 3.478253 8.981395 0.000000 0.000000 0.000000 6.219902 -2.196552 7.567512 -0.084052 9.030687 -28.086288 -3.581887 4.510888 20.976486 12.420990 4.381936 5.055334 0.000000 0.000000 0.000000 2.865611 0.385946 -4.308287 -1.661411 -3.082694 -12.621669 -1.519187 -1.835187 10.893232 0.059346 0.059940 -0.017265 -1.844592 0.265156 12.634163 -1.889873 -0.007549 20.325243 0.000000 0.000000 0.000000 -0.294904 1.067684 9.749123 -17.330157 -11.740492 2.900328 -44.460522 18.085088 22.828890 -1.095082 -35.711279 2.456208 0.000000 0.000000 0.000000 -4.255461 2.082694 9.242393 24.949115 8.802935 7.187479 46.415896 -17.654367 14.736253 -6.938166 32.200845 -4.209691 0.000000 0.000000 0.000000 
2.108293 34.527672 -28.598606 179.617952 1.929532 179.721142 0.401713 -3.363986 8.851753 -8.548642 -4.410468 -28.159186 11.244406 6.516754 16.727859 -1.209316 3.459666 8.831149 0.000000 0.000000 0.000000 6.225546 -2.124989 7.490744 0.063954 9.067921 -27.992564 -3.549613 4.684653 20.952924 12.324152 4.338081 5.109906 0.000000 0.000000 0.000000 2.871537 0.482337 -4.333615 -1.650697 -3.007704 -12.589860 -1.556797 -1.889557 10.851282 0.077956 0.030162 -0.062431 -1.819344 0.060551 12.653685 -1.931821 -0.063788 20.535969 0.000000 0.000000 0.000000 -0.212178 1.069005 9.811555 -17.309019 -11.756380 2.856820 -43.862450 17.948195 23.287074 -1.278049 -35.887938 2.705583 0.000000 0.000000 0.000000 -4.207043 2.093933 9.309302 25.003757 9.071868 7.250097 46.533030 -18.052417 14.374714 -6.955771 32.121157 -4.306078 0.000000 0.000000 0.000000 
2.150941 34.534485 -28.581600 179.622446 2.216201 179.700529 0.359015 -3.275340 8.734676 -8.510745 -4.395800 -28.178326 11.631009 6.379148 17.210501 -1.372694 3.412175 8.709069 0.000000 0.000000 0.000000 6.176416 -1.958034 7.370252 0.309630 9.117044 -27.809446 -3.591535 4.917389 20.808450 12.209291 4.223298 5.263261 0.000000 0.000000 0.000000 2.830962 0.539142 -4.447449 -1.591268 -2.945633 -12.498285 -1.412658 -1.740758 10.888311 0.077234 0.041752 -0.059945 -1.782531 0.249843 12.734322 -1.914434 -0.111575 20.860608 0.000000 0.000000 0.000000 -0.266173 0.959491 9.829701 -17.318769 -11.757442 2.861934 -43.378910 17.776162 23.779978 -1.366055 -36.125724 2.684512 0.000000 0.000000 0.000000 -4.248775 1.945097 9.318694 25.205853 9.150046 7.169586 46.634681 -18.418119 13.903985 -7.048689 31.895341 -4.410727 0.000000 0.000000 0.000000 
2.192354 34.529305 -28.611736 179.642581 2.393675 179.756399 0.352213 -3.202792 8.557828 -8.475944 -4.344263 -28.246027 12.005664 6.256506 17.862236 -1.583819 3.341644 8.349351 0.000000 0.000000 0.000000 6.052634 -1.795945 7.228980 0.705315 9.149120 -27.534378 -3.697117 5.285609 20.653461 12.061126 4.024953 5.420446 0.000000 0.000000 0.000000 2.826135 0.624428 -4.687650 -1.599494 -2.858257 -12.357367 -1.459630 -1.926934 10.954197 0.065705 0.058992 -0.043265 -1.816204 0.211551 12.749076 -1.957488 -0.251663 21.142248 0.000000 0.000000 0.000000 -0.225466 0.887747 9.795749 -17.261488 -11.656307 2.929705 -43.106430 17.814563 24.054837 -1.538552 -36.453508 2.708304 0.000000 0.000000 0.000000 -4.254015 1.918205 9.319144 25.430015 9.284687 7.133476 46.749742 -18.824435 13.582322 -6.899972 31.683308 -4.344866 0.000000 0.000000 0.000000 
